<?xml version="1.0" standalone="no"?>
<!DOCTYPE svg PUBLIC "-//W3C//DTD SVG 20010904//EN"
 "http://www.w3.org/TR/2001/REC-SVG-20010904/DTD/svg10.dtd">
<svg version="1.0" xmlns="http://www.w3.org/2000/svg"
 width="128.000000pt" height="80.000000pt" viewBox="0 0 128.000000 80.000000"
 preserveAspectRatio="xMidYMid meet">

<g transform="translate(0.000000,80.000000) scale(0.100000,-0.100000)"
fill="#000000" stroke="none">
<path d="M493 719 c-27 -27 -14 -59 52 -129 58 -62 65 -73 65 -110 0 -32 -6
-48 -28 -70 -28 -27 -85 -50 -128 -50 -36 0 -90 28 -118 60 -32 38 -33 33 -5
-23 12 -23 49 -68 83 -99 l61 -57 -1 -85 0 -86 32 0 c32 0 32 1 39 59 8 72 30
110 87 148 29 20 42 35 40 49 -16 109 -17 105 14 102 72 -5 102 2 107 23 8 29
25 16 48 -37 18 -39 18 -46 5 -79 -8 -19 -22 -35 -31 -35 -24 0 -47 -64 -40
-113 6 -41 5 -42 -33 -58 -23 -10 -41 -25 -45 -38 -5 -20 -2 -21 98 -21 57 0
115 4 129 10 14 5 42 32 62 60 20 27 42 50 50 50 7 0 29 13 47 30 44 38 63
105 46 159 -15 47 -29 62 -29 31 0 -14 -5 -41 -10 -61 -18 -64 -80 -108 -80
-56 0 75 -161 204 -335 268 -62 23 -140 67 -132 75 2 2 19 -2 37 -10 40 -16
86 -5 95 25 9 26 -2 39 -33 39 -15 1 -45 8 -67 16 -65 25 -69 26 -82 13z"/>
<path d="M216 620 c-36 -39 -46 -56 -46 -84 0 -19 7 -42 16 -51 20 -19 64 -16
74 5 11 22 31 100 37 143 4 32 2 37 -15 37 -10 0 -40 -22 -66 -50z"/>
<path d="M456 591 c-3 -5 1 -14 8 -20 16 -13 32 2 21 19 -8 12 -22 13 -29 1z"/>
<path d="M376 563 c-11 -11 -6 -23 9 -23 8 0 15 4 15 9 0 13 -16 22 -24 14z"/>
<path d="M472 490 c-47 -20 -35 -70 17 -70 39 0 64 21 59 51 -3 27 -36 35 -76
19z"/>
<path d="M800 390 c0 -5 5 -10 10 -10 6 0 10 5 10 10 0 6 -4 10 -10 10 -5 0
-10 -4 -10 -10z"/>
<path d="M730 370 c0 -5 5 -10 10 -10 6 0 10 5 10 10 0 6 -4 10 -10 10 -5 0
-10 -4 -10 -10z"/>
<path d="M363 180 l2 -110 33 0 32 0 0 70 c0 77 -12 112 -46 135 l-24 15 3
-110z"/>
</g>
</svg>
